<svg width="800" height="600" xmlns="http://www.w3.org/2000/svg" style="vector-effect: non-scaling-stroke;" stroke="null">
 <!-- Created with Method Draw - http://github.com/duopixel/Method-Draw/ -->

 <g stroke="null">
  <title stroke="null">background</title>
  <rect stroke="null" fill="#fff" id="canvas_background" height="602" width="802" y="-1" x="-1"/>
  <g style="vector-effect: non-scaling-stroke;" stroke="null" display="none" overflow="visible" y="0" x="0" height="100%" width="100%" id="canvasGrid">
   <rect fill="url(#gridpattern)" stroke-width="0" y="0" x="0" height="100%" width="100%"/>
  </g>
 </g>
 <g stroke="null">
  <title stroke="null">Layer 1</title>
  <!-- Created with Method Draw - http://github.com/duopixel/Method-Draw/ -->
  <g stroke="null" id="svg_65">
   <g stroke="null" transform="matrix(0.9939214217697739,0,0,0.9113371542245576,-5149.39846047156,-3369.117215788317) " id="svg_62">
    <title stroke="null" transform="translate(-10.0611572265625,-3.2918663024902344) translate(-41.87382125854492,-167.75381469726562) translate(-774.2860107421875,-570.5034790039062) translate(6000,0) translate(0,4500) ">background</title>
    <rect stroke="null" x="5172.77901" y="3757.45084" width="802" height="602" id="svg_60" fill="#fff"/>
    <g stroke="null" id="svg_59" display="none">
     <rect stroke="null" id="svg_63" width="800" height="600" x="5173.77901" y="3758.45084" stroke-width="0" fill="url(#gridpattern)"/>
    </g>
   </g>
   <g stroke="null" transform="matrix(0.9939214217697739,0,0,0.9113371542245576,-5149.39846047156,-3369.117215788317) " id="svg_64">
    <title stroke="null" transform="translate(-10.0611572265625,-3.2918663024902344) translate(-41.87382125854492,-167.75381469726562) translate(-774.2860107421875,-570.5034790039062) translate(6000,0) translate(0,4500) ">Layer 1</title>
    <g stroke="null" id="svg_32">
     <path stroke="null" d="m5946.51331,3992.68091l0,-71.86886l-54.36852,0l0,-46.68405l-36.8033,0l0,46.68405l-54.36852,0l0,71.86886l-30.11179,0l0,-161.55137l-61.06003,0l0,-15.3566l-81.13455,0l0,-15.35659l-80.29813,0l0,15.35659l-76.11592,0l0,15.3566l-66.07867,0l0,160.93711l-35.13043,0l0,-71.86886l-54.36852,0l0,-46.68405l-36.8033,0l0,46.68405l-54.36852,0l0,71.86886l-35.13043,0l0,254.91946l80.29812,0l0,-90.29677l55.20496,0l0,90.29677l215.8012,0l0,-105.0391l93.68113,0l0,105.0391l130.48445,0l0,0.61427l80.29812,0l0,-90.29678l55.20496,0l0,90.29678l80.29812,0l0,-254.91947l-35.13043,0zm-727.28349,30.71319l31.78468,0l0,18.42791l-31.78468,0l0,-18.42791zm0.41821,51.59816l31.78468,0l0,18.42791l-31.78468,0l0,-18.42791zm32.2029,70.02607l-31.78468,0l0,-18.42792l31.78468,0l0,18.42792zm83.22566,-166.46549l-73.60662,0l0,-11.05674l73.60662,0l0,11.05674zm0,-15.97085l-73.60662,0l0,-11.05675l73.60662,0l0,11.05675zm0,-15.97086l-73.60662,0l0,-11.05675l73.60662,0l0,11.05675zm10.45548,76.78297l31.78468,0l0,18.42791l-31.78468,0l0,-18.42791zm0.41822,51.59816l31.78468,0l0,18.42791l-31.78468,0l0,-18.42791zm32.2029,70.02607l-31.78468,0l0,-18.42792l31.78468,0l0,18.42792zm130.06622,-30.71319l-58.55071,0l0,-19.04218l58.55071,0l0,19.04218zm0,-54.66948l-58.55071,0l0,-19.04218l58.55071,0l0,19.04218zm0,-54.66947l-58.55071,0l0,-19.04218l58.55071,0l0,19.04218zm0,-54.66948l-58.55071,0l0,-19.04218l58.55071,0l0,19.04218zm0,-54.66948l-58.55071,0l0,-19.04217l58.55071,0l0,19.04217zm109.57348,218.67791l-58.55071,0l0,-19.04218l58.55071,0l0,19.04218zm0,-54.66948l-58.55071,0l0,-19.04218l58.55071,0l0,19.04218zm0,-54.66947l-58.55071,0l0,-19.04218l58.55071,0l0,19.04218zm0,-54.66948l-58.55071,0l0,-19.04218l58.55071,0l0,19.04218zm0,-54.66948l-58.55071,0l0,-19.04217l58.55071,0l0,19.04217zm109.57348,218.67791l-58.55071,0l0,-19.04218l58.55071,0l0,19.04218zm0,-54.66948l-58.55071,0l0,-19.04218l58.55071,0l0,19.04218zm0,-54.66947l-58.55071,0l0,-19.04218l58.55071,0l0,19.04218zm0,-54.66948l-58.55071,0l0,-19.04218l58.55071,0l0,19.04218zm0,-54.66948l-58.55071,0l0,-19.04217l58.55071,0l0,19.04217zm67.33332,128.38113l31.78468,0l0,18.42792l-31.78468,0l0,-18.42792zm0.41821,51.59816l31.78468,0l0,18.42791l-31.78468,0l0,-18.42791zm32.2029,70.02607l-31.78468,0l0,-18.42791l31.78468,0l0,18.42791zm83.22566,-166.46548l-73.60662,0l0,-11.05675l73.60662,0l0,11.05675zm0,-15.97086l-73.60662,0l0,-11.05675l73.60662,0l0,11.05675zm0,-15.97086l-73.60662,0l0,-11.05675l73.60662,0l0,11.05675zm10.45548,76.78297l31.78468,0l0,18.42792l-31.78468,0l0,-18.42792zm0.41822,51.59816l31.78468,0l0,18.42791l-31.78468,0l0,-18.42791zm32.2029,70.02607l-31.78468,0l0,-18.42791l31.78468,0l0,18.42791z" fill="#f2f2f2" id="svg_58"/>
     <path stroke="null" d="m5256.31583,4203.94236l0.00062,0.00053c0.02731,-0.04926 0.05102,-0.10307 0.07855,-0.15207l-0.07917,0.15154z" fill="#6c63ff" id="svg_57"/>
     <path stroke="null" d="m5255.47334,4205.57358l-0.07792,0.15203c0.02476,-0.05221 0.0534,-0.09976 0.07835,-0.15169l-0.00043,-0.00034z" fill="#6c63ff" id="svg_56"/>
     <path stroke="null" d="m5226.57924,4230.38787l0.00078,0.00034c0.00662,-0.0535 0.00805,-0.11041 0.015,-0.16369l-0.01578,0.16335z" fill="#6c63ff" id="svg_53"/>
     <path stroke="null" d="m5226.41855,4232.14416l-0.01438,0.16358c0.00304,-0.05568 0.01162,-0.10786 0.01495,-0.16335l-0.00057,-0.00023z" fill="#6c63ff" id="svg_52"/>
     <path stroke="null" d="m5924.34967,4202.09957l0.00062,0.00053c0.02731,-0.04926 0.05102,-0.10307 0.07855,-0.15207l-0.07917,0.15154z" fill="#6c63ff" id="svg_51"/>
     <path stroke="null" d="m5923.50717,4203.73079l-0.07792,0.15203c0.02476,-0.05221 0.0534,-0.09976 0.07835,-0.15169l-0.00043,-0.00034z" fill="#6c63ff" id="svg_50"/>
     <path stroke="null" d="m5894.45238,4230.30137l-0.01438,0.16358c0.00304,-0.05568 0.01162,-0.10786 0.01495,-0.16335l-0.00057,-0.00023z" fill="#6c63ff" id="svg_48"/>
     <path stroke="null" d="m5894.61308,4228.54508l0.00078,0.00034c0.00662,-0.0535 0.00805,-0.11041 0.015,-0.16369l-0.01578,0.16335z" fill="#6c63ff" id="svg_47"/>
     <path stroke="null" d="m5802.52741,3859.94179l8.47897,4.23217l-5.148,-7.36725a8.38381,6.5989 0 0 1 5.12739,-1.44045q0.06833,0 0.13644,0.00094a9.82652,7.73446 0 0 0 1.75921,-0.1024l2.87338,1.43421l-1.23179,-1.76281a10.22718,8.04982 0 0 0 5.02692,-3.00281l5.14306,2.5671l-3.24902,-4.64963c3.00737,-2.84171 7.06165,-4.58415 11.52273,-4.58415c5.34817,0 10.11238,2.50355 13.18796,6.40426a9.85804,7.75927 0 0 0 8.71707,3.69947q0.14335,-0.00416 0.28761,-0.00418c5.90424,0 10.69058,5.26911 10.69058,11.76889s-4.78634,11.7689 -10.69058,11.7689a8.02265,6.31463 0 0 1 -3.72373,-0.73379a15.42721,12.14277 0 0 0 -12.93955,-0.19912a13.48847,10.61678 0 0 1 -11.00092,0.02004a15.43836,12.15154 0 0 0 -12.82501,0.19514a8.01568,6.30915 0 0 1 -3.68433,0.71772c-5.90424,0 -10.69057,-5.26912 -10.69057,-11.76889a18.98615,14.94401 0 0 1 2.23217,-7.19337l0.00001,0.00001z" fill="#f2f2f2" id="svg_45"/>
     <path stroke="null" d="m5371.14777,3894.50631l5.39367,2.69218l-3.27476,-4.68648a5.33313,4.19771 0 0 1 3.26164,-0.91631q0.04348,0 0.0868,0.00061a6.25026,4.91958 0 0 0 1.11911,-0.06511l1.82782,0.91233l-0.78354,-1.12136a6.50568,5.12063 0 0 0 3.19774,-1.91016l3.27162,1.633l-2.06691,-2.95778a9.57411,7.53579 0 0 1 7.32987,-2.91608c3.40211,0 6.43272,1.59256 8.38916,4.0739a6.2709,4.93583 0 0 0 5.54512,2.35331q0.09121,-0.00264 0.18297,-0.00265c3.75582,0 6.80052,3.3518 6.80052,7.48646s-3.0447,7.48646 -6.80052,7.48646a5.10333,4.01683 0 0 1 -2.36875,-0.46678a9.81364,7.72432 0 0 0 -8.23114,-0.12666a8.58036,6.75361 0 0 1 -6.99793,0.01275a9.82072,7.7299 0 0 0 -8.15829,0.12413a5.09899,4.01342 0 0 1 -2.34371,0.45656c-3.75582,0 -6.80052,-3.3518 -6.80052,-7.48646a12.07755,9.50625 0 0 1 1.42003,-4.57585l0,-0.00001z" fill="#f2f2f2" id="svg_44"/>
     <path stroke="null" d="m5225.99088,3908.93815l5.39367,2.69218l-3.27476,-4.68648a5.33313,4.19771 0 0 1 3.2616,-0.91631q0.04348,0 0.0868,0.00061a6.25026,4.91958 0 0 0 1.11911,-0.06511l1.82782,0.91233l-0.78354,-1.12136a6.50573,5.12066 0 0 0 3.19774,-1.91016l3.27162,1.633l-2.06687,-2.95778a9.57411,7.53579 0 0 1 7.32987,-2.91608c3.40211,0 6.43272,1.59256 8.38916,4.0739a6.2709,4.93583 0 0 0 5.54512,2.35331q0.0912,-0.00264 0.18297,-0.00265c3.75582,0 6.80052,3.3518 6.80052,7.48646s-3.0447,7.48646 -6.80052,7.48646a5.10333,4.01683 0 0 1 -2.36875,-0.46678a9.81364,7.72432 0 0 0 -8.23114,-0.12666a8.58036,6.75361 0 0 1 -6.99793,0.01275a9.82067,7.72986 0 0 0 -8.15829,0.12413a5.09899,4.01342 0 0 1 -2.34371,0.45656c-3.75582,0 -6.80052,-3.3518 -6.80052,-7.48646a12.07755,9.50625 0 0 1 1.42003,-4.57585l0,-0.00001z" fill="#f2f2f2" id="svg_43"/>
     <path stroke="null" d="m5447.09947,4211.50583a21.65023,17.04091 0 0 1 -1.25606,2.47162c-0.31401,0.24716 -1.25606,-1.73013 -1.25606,-1.73013l0.94204,-1.73014l1.57007,0.98865l0.00001,0z" fill="#fbbebe" id="svg_42"/>
     <ellipse stroke="null" cx="16640.22834" cy="13293.97" rx="16.78612" ry="21.97455" fill="#3f3d56" id="svg_41" transform="matrix(0.780413356795133,0,0,0.6142637709897434,-7080.862097624552,-4013.1876226593995) "/>
     <path stroke="null" d="m5954.43458,4039.91706a62.89039,49.50106 0 0 0 4.87864,-5.65246l-34.42164,-4.44967l37.22792,0.21792a62.85981,49.47699 0 0 0 1.19832,-39.13482l-49.94567,20.39324l46.06156,-26.65012a62.7544,49.39402 0 1 0 -103.64104,55.2759a62.78574,49.41869 0 0 0 -7.15639,9.00721l44.68171,18.27133l-47.64317,-12.58565a62.78703,49.4197 0 0 0 10.11783,46.38114a62.74972,49.39034 0 1 0 98.64191,0a62.7582,49.39702 0 0 0 0,-61.07408l0.00003,0.00004l-0.00001,0.00002z" fill="#f2f2f2" id="svg_40"/>
     <path stroke="null" d="m5841.36389,4069.4541a62.48044,49.17839 0 0 0 13.42875,30.53704a62.74972,49.39034 0 1 0 98.64191,0c8.41037,-8.40385 -112.07066,-36.08047 -112.07066,-30.53704z" fill="#f2f2f2" id="svg_39"/>
     <ellipse stroke="null" cx="15795.22834" cy="13293.97" rx="16.78612" ry="21.97455" fill="#3f3d56" id="svg_38" transform="matrix(0.780413356795133,0,0,0.6142637709897434,-7080.862097624552,-4013.1876226593995) "/>
     <path stroke="null" d="m5294.98529,4039.91706a62.89039,49.50106 0 0 0 4.87864,-5.65246l-34.42164,-4.44967l37.22792,0.21792a62.85981,49.47699 0 0 0 1.19832,-39.13482l-49.94567,20.39324l46.06156,-26.65012a62.7544,49.39402 0 1 0 -103.64104,55.2759a62.78574,49.41869 0 0 0 -7.15639,9.00721l44.68171,18.27133l-47.64317,-12.58565a62.78703,49.4197 0 0 0 10.11783,46.38114a62.74972,49.39034 0 1 0 98.64191,0a62.7582,49.39702 0 0 0 0,-61.07408l0.00003,0.00004l-0.00001,0.00002z" fill="#f2f2f2" id="svg_37"/>
     <path stroke="null" d="m5182.9146,4070.4541a62.48044,49.17839 0 0 0 13.42875,30.53704a62.74972,49.39034 0 1 0 98.64191,0c8.41037,-8.40385 -112.07066,-36.08047 -112.07066,-30.53704z" fill="#f2f2f2" id="svg_36"/>
     <path stroke="null" d="m5183.9146,3982.4541a62.48044,49.17839 0 0 0 13.42875,30.53704a62.74972,49.39034 0 1 0 98.64191,0c8.41037,-8.40385 -112.07066,-36.08047 -112.07066,-30.53704z" opacity="0.1" id="svg_35"/>
     <polygon stroke="null" points="5714.1268310546875,3979.2071571350098 5682.9910888671875,4003.7139930725098 5668.2391357421875,3992.1031532287598 5662.4954833984375,3996.6236610412598 5682.9715576171875,4012.7398719787598 5719.8699951171875,3983.7276649475098 5714.1268310546875,3979.2071571350098 " fill="#57b894" id="svg_34"/>
     <polygon stroke="null" points="5765.2386474609375,3920.3092079162598 5734.1033935546875,3944.8160438537598 5719.3509521484375,3933.2052040100098 5713.6082763671875,3937.7252235412598 5734.0838623046875,3953.8419227600098 5770.9827880859375,3924.8297157287598 5765.2386474609375,3920.3092079162598 " fill="#57b894" id="svg_33"/>
    </g>
   </g>
  </g>
 </g>
</svg>