<svg width="800" height="600" xmlns="http://www.w3.org/2000/svg">
 <!-- Created with Method Draw - http://github.com/duopixel/Method-Draw/ -->

 <g>
  <title>background</title>
  <rect fill="#fff" id="canvas_background" height="602" width="802" y="-1" x="-1"/>
  <g display="none" overflow="visible" y="0" x="0" height="100%" width="100%" id="canvasGrid">
   <rect fill="url(#gridpattern)" stroke-width="0" y="0" x="0" height="100%" width="100%"/>
  </g>
 </g>
 <g>
  <title>Layer 1</title>
  <defs>
   <linearGradient y2="-0.00012" x2="0.49997" y1="1.00003" x1="0.49997" id="svg_5">
    <stop stop-opacity="0.25" stop-color="gray" offset="0"/>
    <stop stop-opacity="0.12" stop-color="gray" offset="0.54"/>
    <stop stop-opacity="0.1" stop-color="gray" offset="1"/>
   </linearGradient>
  </defs>
  <g id="svg_98">
   <path id="svg_7" opacity="0.1" fill="#4d9883" d="m515.39774,-173.61148a7.4698,7.4698 0 0 1 -0.20936,1.76506a6.97283,6.97283 0 0 1 -0.58866,1.57495a4.50725,4.50725 0 0 1 -4.51275,4.51336l-23.01671,0a5.75487,5.75487 0 0 1 -5.13228,-3.15816a0.00245,0.00245 0 0 1 0,0a5.71849,5.71849 0 0 1 -0.61464,-2.58815c-0.56299,-1.00861 -0.89063,-2.21496 -0.89063,-3.51209c0,-3.52798 2.42188,-6.38784 5.4098,-6.38784c0.10575,0 0.21089,0.00397 0.31511,0.011c1.87479,-3.72237 6.10329,-6.31816 11.01613,-6.31816c3.02032,0 5.78115,0.98049 7.89617,2.60037c0.77754,-0.51072 1.67276,-0.8023 2.62543,-0.8023c2.98762,0 5.4098,2.86016 5.4098,6.38784q0,0.33865 -0.03056,0.66813c1.40441,1.15409 2.32316,3.07319 2.32316,5.24598z"/>
   <path id="svg_8" fill="#fff" d="m498.02495,-181.43094c-0.03607,0.19805 -0.15802,0.61617 -0.55198,0.60578c-0.30075,-0.00764 -0.53242,-0.27018 -0.52448,-0.57093l0.11339,-4.09555l0.03698,-1.33564s0.195,-0.36952 0.38908,1.28704l0,0.00611l0.53915,3.92807a0.55015,0.55015 0 0 1 -0.00214,0.17513z"/>
   <rect transform="matrix(0.0305638423720469,0,0,0.0305638423720469,0,0) " id="svg_9" fill="#fff" height="40.51" width="18.94" y="-5923.11989" x="16267.04922"/>
   <rect transform="matrix(0.0305638423720469,0,0,0.0305638423720469,0,0) " id="svg_10" fill="#fff" height="17.78" width="14.57" y="-5892.22989" x="16269.37922"/>
   <path id="svg_11" fill="#4d9883" d="m497.48886,-185.53383c-0.20264,-0.05899 -0.34048,-0.01406 -0.42789,0.04248l0.03698,-1.33564s0.195,-0.36952 0.38908,1.28704l0.00183,0.00611z"/>
   <path id="svg_12" fill="#4d9883" d="m497.76241,-180.66317l0,0.86801l-0.57888,0l0,-0.8509a0.78243,0.78243 0 0 1 0.57888,-0.01712z"/>
   <path id="svg_13" fill="#fff" d="m499.12525,-177.90357c-0.16229,-0.1192 -0.48444,-0.412 -0.30258,-0.76165c0.13876,-0.26682 0.47618,-0.36035 0.74301,-0.22128l3.63129,1.8974l1.18435,0.61861s0.24634,0.3362 -1.32769,-0.21395l-0.00581,-0.00183l-3.76699,-1.23784a0.55871,0.55871 0 0 1 -0.15557,-0.07947z"/>
   <rect id="svg_14" fill="#fff" transform="rotate(-64 772.2390136718749,-177.83059692382812) matrix(0.17482517659664154,0,0,0.17482517659664154,495.4146251088383,329.6891603107057) matrix(0.17482517659664154,0,0,0.17482517659664154,-1849.9487788797628,-1858.9880259008542) " height="40.51" width="18.94" y="-5105.2199" x="16307.62922"/>
   <rect id="svg_15" fill="#fff" transform="rotate(116 -62.303207397460994,1607.87646484375) matrix(0.17482517659664157,0,0,0.17482517659664157,1455.132320926738,750.388435361838) matrix(0.17482517659664154,0,0,0.17482517659664154,-6398.211436001577,-2783.285309393633) " height="17.78" width="14.57" y="-5878.72988" x="17477.53918"/>
   <path id="svg_16" fill="#4d9883" d="m503.04781,-176.58657c0.14182,-0.15649 0.16199,-0.30014 0.14915,-0.40253l1.18435,0.61861s0.24634,0.3362 -1.32769,-0.21395l-0.00581,-0.00214z"/>
   <path id="svg_17" fill="#4d9883" d="m498.55065,-178.47603l-0.78029,-0.38052l0.25368,-0.51959l0.7641,0.37288a0.78213,0.78213 0 0 1 -0.23748,0.52723z"/>
   <path id="svg_18" fill="#fff" d="m495.82069,-177.90357c0.16229,-0.1192 0.48444,-0.412 0.30258,-0.76165c-0.13876,-0.26682 -0.47618,-0.36035 -0.74301,-0.22128l-3.63129,1.8974l-1.18435,0.61861s-0.24634,0.3362 1.32769,-0.21395l0.00581,-0.00183l3.76699,-1.23753a0.55871,0.55871 0 0 0 0.15557,-0.07977z"/>
   <rect id="svg_19" fill="#fff" transform="rotate(-26 530.6036987304689,-193.69580078124994) matrix(0.17482517659664154,0,0,0.17482517659664154,58.85181006556167,65.79725442889595) matrix(0.17482517659664154,0,0,0.17482517659664154,-128.96317761548144,-476.40584688666263) " height="18.94" width="40.51" y="-5580.27988" x="16115.14922"/>
   <rect id="svg_20" fill="#fff" transform="rotate(64 674.2204589843749,69.26617431640628) matrix(0.17482517659664154,0,0,0.17482517659664154,580.3941124317817,280.33634433130834) matrix(0.17482517659664154,0,0,0.17482517659664154,-2696.685711090643,-789.8910708526279) " height="17.78" width="14.57" y="-6175.39989" x="16906.27924"/>
   <path id="svg_21" fill="#4d9883" d="m491.89812,-176.58657c-0.14182,-0.15649 -0.16199,-0.30014 -0.14915,-0.40253l-1.18435,0.61861s-0.24634,0.3362 1.32769,-0.21395l0.00581,-0.00214z"/>
   <path id="svg_22" fill="#4d9883" d="m496.39529,-178.47603l0.78029,-0.38052l-0.25368,-0.51959l-0.7641,0.37288a0.78213,0.78213 0 0 0 0.23748,0.52723z"/>
   <polygon id="svg_23" fill="#fff" points="497.99377632141113,-165.78591918945312 496.8583278656006,-165.78591918945312 497.21898078918457,-179.1585235595703 497.63312339782715,-179.1585235595703 497.99377632141113,-165.78591918945312 "/>
   <circle transform="matrix(0.0305638423720469,0,0,0.0305638423720469,0,0) " id="svg_24" fill="#4d9883" r="12.38" cy="-5867.16989" cx="16276.51922"/>
   <path id="svg_25" fill="#fff" d="m506.43245,-182.13574c-0.02415,0.13387 -0.10667,0.41659 -0.37318,0.40956a0.37257,0.37257 0 0 1 -0.35515,-0.38602l0.07702,-2.77092l0.02476,-0.90347s0.13204,-0.25001 0.26346,0.87076l0,0.00397l0.36463,2.65905a0.37471,0.37471 0 0 1 -0.00153,0.11706z"/>
   <rect transform="matrix(0.0305638423720469,0,0,0.0305638423720469,0,0) " id="svg_26" fill="#fff" height="27.41" width="12.81" y="-5950.39989" x="16551.03922"/>
   <rect transform="matrix(0.0305638423720469,0,0,0.0305638423720469,0,0) " id="svg_27" fill="#fff" height="12.03" width="9.86" y="-5929.49989" x="16552.60922"/>
   <path id="svg_28" fill="#4d9883" d="m506.06997,-184.91155c-0.13723,-0.03973 -0.23045,-0.00947 -0.28883,0.02873l0.02476,-0.90347s0.13204,-0.25001 0.26346,0.87076l0.00061,0.00397z"/>
   <path id="svg_29" fill="#4d9883" d="m506.25488,-181.61677l0,0.58683l-0.39152,0l0,-0.57491a0.52845,0.52845 0 0 1 0.39152,-0.01192z"/>
   <path id="svg_30" fill="#fff" d="m507.17607,-179.74962c-0.10972,-0.08038 -0.32795,-0.27844 -0.20478,-0.515a0.37227,0.37227 0 0 1 0.50278,-0.14976l2.45672,1.28368l0.80108,0.41842s0.16688,0.22831 -0.89797,-0.14487l-0.00397,0l-2.54872,-0.83714a0.37685,0.37685 0 0 1 -0.10514,-0.05532z"/>
   <rect id="svg_31" fill="#fff" transform="rotate(-64 872.6335449218749,-263.0613708496094) matrix(0.17482517659664154,0,0,0.17482517659664154,746.1765549157792,282.9473479125586) matrix(0.17482517659664154,0,0,0.17482517659664154,-2945.567047540104,-1862.3901247517115) " height="27.41" width="12.81" y="-4934.25988" x="16778.50921"/>
   <rect id="svg_32" fill="#fff" transform="rotate(116 195.07159423828114,2328.21142578125) matrix(0.17482517659664157,0,0,0.17482517659664157,2110.8883577005763,637.1544542977156) matrix(0.17482517659664154,0,0,0.17482517659664154,-9130.120241207256,-2100.5528891817157) " height="12.03" width="9.86" y="-6240.4599" x="18110.60927"/>
   <path id="svg_33" fill="#4d9883" d="m509.83085,-178.85838c0.09597,-0.10575 0.10972,-0.20294 0.10086,-0.27232l0.80108,0.41842s0.16688,0.22831 -0.89797,-0.14487l-0.00397,-0.00122z"/>
   <path id="svg_34" fill="#4d9883" d="m506.78822,-180.13656l-0.52906,-0.25765l0.17146,-0.35179l0.51745,0.25215a0.53028,0.53028 0 0 1 -0.15985,0.35729z"/>
   <path id="svg_35" fill="#fff" d="m504.94124,-179.74962c0.10972,-0.08038 0.32795,-0.27844 0.20478,-0.515a0.37227,0.37227 0 0 0 -0.50278,-0.14976l-2.45672,1.28368l-0.80108,0.41842s-0.16688,0.22831 0.89797,-0.14487l0.00397,0l2.54872,-0.83714a0.37685,0.37685 0 0 0 0.10514,-0.05532z"/>
   <rect id="svg_36" fill="#fff" transform="rotate(-26 549.5654296875003,-214.85723876953122) matrix(0.17482517659664154,0,0,0.17482517659664154,107.5086671423675,57.374103471320446) matrix(0.17482517659664154,0,0,0.17482517659664154,-352.535114958947,-546.2369807850372) " height="12.81" width="27.41" y="-5505.03989" x="16464.59922"/>
   <rect id="svg_37" fill="#fff" transform="rotate(64 804.1885986328124,117.3153457641602) matrix(0.17482517659664154,0,0,0.17482517659664154,845.1162498403746,236.12271617128877) matrix(0.17482517659664154,0,0,0.17482517659664154,-3778.432443499782,-391.4854519915824) " height="12.03" width="9.86" y="-6503.71988" x="17311.76921"/>
   <path id="svg_38" fill="#4d9883" d="m502.28738,-178.85838c-0.09597,-0.10575 -0.10972,-0.20294 -0.10086,-0.27232l-0.80108,0.41842s-0.16688,0.22831 0.89797,-0.14487l0.00397,-0.00122z"/>
   <path id="svg_39" fill="#4d9883" d="m505.33001,-180.13656l0.52784,-0.25765l-0.17146,-0.35179l-0.51745,0.25215a0.53028,0.53028 0 0 0 0.16107,0.35729z"/>
   <polygon id="svg_40" fill="#fff" points="506.41167068481445,-171.55117797851562 505.6396255493164,-171.41546630859375 505.88719367980957,-180.59837341308594 506.16746520996094,-180.59837341308594 506.41167068481445,-171.55117797851562 "/>
   <circle transform="matrix(0.0305638423720469,0,0,0.0305638423720469,0,0) " id="svg_41" fill="#4d9883" r="8.38" cy="-5912.53989" cx="16557.44922"/>
   <path id="svg_42" fill="#fff" d="m488.91448,-182.13574c-0.02415,0.13387 -0.10667,0.41659 -0.37318,0.40956a0.37227,0.37227 0 0 1 -0.35485,-0.38602l0.07672,-2.77092l0.02476,-0.90347s0.13204,-0.25001 0.26346,0.87076l0,0.00397l0.36493,2.65905a0.38388,0.38388 0 0 1 -0.00183,0.11706z"/>
   <rect transform="matrix(0.0305638423720469,0,0,0.0305638423720469,0,0) " id="svg_43" fill="#fff" height="27.41" width="12.81" y="-5950.39989" x="15977.87922"/>
   <rect transform="matrix(0.0305638423720469,0,0,0.0305638423720469,0,0) " id="svg_44" fill="#fff" height="12.03" width="9.86" y="-5929.49989" x="15979.44922"/>
   <path id="svg_45" fill="#4d9883" d="m488.55199,-184.91155c-0.13693,-0.03973 -0.23045,-0.00947 -0.28883,0.02873l0.02476,-0.90347s0.13204,-0.25001 0.26346,0.87076l0.00061,0.00397z"/>
   <path id="svg_46" fill="#4d9883" d="m488.7369,-181.61677l0,0.58683l-0.39152,0l0,-0.57491a0.52845,0.52845 0 0 1 0.39152,-0.01192z"/>
   <path id="svg_47" fill="#fff" d="m489.65902,-179.74962c-0.10972,-0.08038 -0.32764,-0.27844 -0.20447,-0.515a0.37196,0.37196 0 0 1 0.50247,-0.14976l2.45672,1.28368l0.80138,0.41842s0.16657,0.22831 -0.89827,-0.14487l-0.00397,0l-2.54841,-0.83714a0.37869,0.37869 0 0 1 -0.10545,-0.05532z"/>
   <rect id="svg_48" fill="#fff" transform="rotate(-64 634.5579223632812,-126.8740768432617) matrix(0.17482517659664154,0,0,0.17482517659664154,214.9272713068824,282.9462591559781) matrix(0.17482517659664154,0,0,0.17482517659664154,-703.6932829047926,-1437.294964754366) " height="27.41" width="12.81" y="-5449.4099" x="15883.44922"/>
   <rect id="svg_49" fill="#fff" transform="rotate(116 -72.86456298828124,787.3758544921875) matrix(0.17482517659664157,0,0,0.17482517659664157,750.3105906512619,637.148755032422) matrix(0.17482517659664154,0,0,0.17482517659664154,-3388.483040736216,-2525.62286868906) " height="12.03" width="9.86" y="-5725.30988" x="16713.02922"/>
   <path id="svg_50" fill="#4d9883" d="m492.31287,-178.85838c0.09597,-0.10575 0.10972,-0.20294 0.10086,-0.27232l0.80138,0.41842s0.16657,0.22831 -0.89827,-0.14487l-0.00397,-0.00122z"/>
   <path id="svg_51" fill="#4d9883" d="m489.27024,-180.13656l-0.52784,-0.25765l0.17177,-0.35179l0.51714,0.25215a0.52906,0.52906 0 0 1 -0.16107,0.35729z"/>
   <path id="svg_52" fill="#fff" d="m487.42327,-179.74962c0.11003,-0.08038 0.32795,-0.27844 0.20478,-0.515a0.37227,0.37227 0 0 0 -0.50278,-0.14976l-2.45672,1.28368l-0.80108,0.41842s-0.16688,0.22831 0.89797,-0.14487l0.00397,0l2.54872,-0.83714a0.37685,0.37685 0 0 0 0.10514,-0.05532z"/>
   <rect id="svg_53" fill="#fff" transform="rotate(-26 506.34585571289085,-180.70304870605463) matrix(0.17482517659664154,0,0,0.17482517659664154,11.77511159413816,57.37484649690347) matrix(0.17482517659664154,0,0,0.17482517659664154,51.459784102206854,-338.90895715364235) " height="12.81" width="27.41" y="-5756.29989" x="15833.42922"/>
   <rect id="svg_54" fill="#fff" transform="rotate(64 566.1110229492188,-18.87113571166994) matrix(0.17482517659664154,0,0,0.17482517659664154,313.86698886521265,236.1237907847422) matrix(0.17482517659664154,0,0,0.17482517659664154,-1536.563398307798,-816.5731625516647) " height="12.03" width="9.86" y="-5988.56988" x="16416.71921"/>
   <path id="svg_55" fill="#4d9883" d="m484.76941,-178.85838c-0.09566,-0.10575 -0.10942,-0.20294 -0.10086,-0.27232l-0.80108,0.41842s-0.16688,0.22831 0.89797,-0.14487l0.00397,-0.00122z"/>
   <path id="svg_56" fill="#4d9883" d="m487.81204,-180.13656l0.52784,-0.25765l-0.17146,-0.35179l-0.51745,0.25215a0.53181,0.53181 0 0 0 0.16107,0.35729z"/>
   <polygon id="svg_57" fill="#fff" points="488.89369678497314,-171.55117797851562 488.12532234191895,-171.55117797851562 488.3695273399353,-180.59837341308594 488.64949226379395,-180.59837341308594 488.89369678497314,-171.55117797851562 "/>
   <circle transform="matrix(0.0305638423720469,0,0,0.0305638423720469,0,0) " id="svg_58" fill="#4d9883" r="8.38" cy="-5912.53989" cx="15984.28922"/>
   <path id="svg_59" fill="#fff" d="m514.44079,-169.07948a4.51489,4.51489 0 0 1 -4.35382,3.32137l-23.01671,0a5.75487,5.75487 0 0 1 -5.13228,-3.15816a0.00245,0.00245 0 0 1 0,0s3.33604,-4.61453 11.99998,-1.59971c7.19289,2.50287 10.5106,0.13601 11.43088,-0.73995a1.01655,1.01655 0 0 1 0.74881,-0.27752c1.76262,0.08344 7.86836,0.51072 8.32406,2.45336a0,0 0 0 0 -0.00092,0.00061z"/>
   <ellipse transform="matrix(0.0305638423720469,0,0,0.0305638423720469,0,0) " id="svg_60" opacity="0.1" fill="#4d9883" ry="14.31" rx="121.92" cy="-5428.70989" cx="15928.11922"/>
   <path id="svg_61" fill="url(#svg_5)" d="m488.68984,-166.31253s-0.24176,-0.02842 -0.39916,-0.14579l-0.01192,-0.00947a0.1461,0.1461 0 0 0 0.02048,-0.04676a0.23534,0.23534 0 0 1 -0.02598,-0.10636a0.2387,0.2387 0 0 0 -0.02078,-0.10086l0,-0.17177s-0.05226,-0.05563 -0.05746,-0.19714s-0.01039,-0.83898 -0.01039,-0.83898a0.32795,0.32795 0 0 1 -0.0052,-0.11125c0.0052,-0.08069 0.0052,-0.11095 0.0052,-0.11095a0.30564,0.30564 0 0 1 -0.01559,-0.14671c0.01559,-0.06113 -0.03668,-0.13142 -0.03668,-0.13142l0.07824,-0.38388s0.0434,-1.32617 -0.08283,-1.72594l0,-0.00245s0,-0.00336 0,-0.00489c0.0107,-0.25796 -0.14579,-0.68738 -0.05715,-0.98538s0.09903,-0.36402 0.09903,-0.36402s-0.39061,-0.98049 -0.48902,-1.21277c-0.06816,-0.16015 -0.13876,-0.3362 -0.20845,-0.43645q-0.00917,-0.01314 -0.01834,-0.02476c-0.00336,-0.00428 -0.00672,-0.00856 -0.01009,-0.01223a0.2708,0.2708 0 0 0 0.03759,-0.11675c0.0055,-0.07213 -0.00489,-0.15526 0.04768,-0.20631a0.40191,0.40191 0 0 1 0.06449,-0.0431a0.25888,0.25888 0 0 0 0.11461,-0.24757c-0.011,-0.0761 -0.05471,-0.13937 -0.10453,-0.2008a0.56176,0.56176 0 0 0 -0.17177,-0.51408l0,0c0,-0.00947 0,-0.01926 0,-0.02873a0.32184,0.32184 0 0 0 -0.06113,-0.1953l0.01467,0.01039c-0.00825,-0.00734 -0.0162,-0.01437 -0.02476,-0.02139a0.17269,0.17269 0 0 0 -0.04096,-0.03056a0.7641,0.7641 0 0 0 -0.79466,-0.04126a0.44348,0.44348 0 0 0 -0.15496,0.13784c-0.08161,0.12592 -0.06113,0.28883 -0.10331,0.43187c-0.04096,0.13662 -0.13754,0.24971 -0.21761,0.36891s-0.14701,0.2604 -0.11675,0.39978c0.0217,0.10117 0.09383,0.19194 0.09169,0.29555a0.23351,0.23351 0 0 1 -0.20478,0.21639l-0.00275,0a0.20997,0.20997 0 0 1 -0.03056,0.00245c0.09719,0.06693 0.21792,0.09169 0.3362,0.10728c-0.00245,0.00917 -0.00489,0.01834 -0.00703,0.02781c-0.09566,0.36096 -0.18094,0.81942 -0.18094,0.81942s0.05715,0.46457 -0.06266,0.82859s-0.10422,1.11191 -0.10422,1.11191s0.33345,-0.17207 0.35423,-0.06113s0,0.14151 0,0.14151s0.06816,0.03454 0.14823,0.0651l-0.00336,0.04432l-0.01467,0.19866a0.22159,0.22159 0 0 0 0.01834,0.12226c0.02873,0.05563 0,0.20722 0,0.20722s-0.02445,0.01528 0,0.08619s-0.01926,0.17177 -0.01926,0.17177s-0.03056,0.37899 -0.03454,0.45846s-0.10422,0.30839 -0.10422,0.30839s0.08864,0.11095 0,0.12623s-0.09903,0.15282 -0.09903,0.15282s-0.10422,0.08588 -0.10422,0.11614c0,0 -0.46885,0.47527 -0.57827,1.25831c0,0 -0.10942,0.10117 -0.09383,0.19714c0.00886,0.0544 -0.00886,0.07305 -0.02598,0.07916c0.01926,0.00245 0.04034,0.01498 0.03056,0.06113c-0.01559,0.08069 -0.05715,0.25276 -0.05715,0.25276l0.00734,0l0,0c-0.08527,0.09872 -0.20997,0.26407 -0.22892,0.40925q0,0.00917 -0.00183,0.01834l-0.04707,0.10606l0.41169,0.18338l0.03637,-0.05563s0.18338,0.20722 0.39091,0.25246a0.5257,0.5257 0 0 0 0.10911,0.01192a0.96337,0.96337 0 0 0 0.33804,-0.06755s0.15099,-0.18675 -0.23993,-0.2222c0,0 -0.22892,-0.26285 -0.20814,-0.3741a1.09785,1.09785 0 0 0 0.01437,-0.14151q0,-0.01559 0,-0.03056l0.02659,0.00397l0.00489,-0.08466a0.07244,0.07244 0 0 0 0.01559,-0.05074c0,-0.03515 -0.03056,-0.04034 0,-0.06113s0.03056,0 0.03056,-0.05043s-0.02078,-0.03545 0.02598,-0.08588s-0.0052,-0.14151 -0.0052,-0.14151s0.10942,-0.08099 0.10422,-0.18705s0.34904,-0.77816 0.42178,-0.80352s0.07824,-0.15679 0.07824,-0.15679s0.09903,0.02017 0.1302,0s0.1302,-0.17666 0.1302,-0.17666s0.39733,-1.00066 0.4013,-1.37965l0.02598,-0.08588s0.15129,0.19714 0.1302,0.33865s0.11553,0.24237 0.11553,0.24237l0,0.42973a1.25312,1.25312 0 0 1 0.02506,0.22739c-0.0052,0.0706 0.06113,0.14151 0.03607,0.20203s0,0.16688 0,0.16688s-0.0055,0.14151 0,0.18185s-0.02048,0.50522 0.11523,0.70755c0,0 0.05715,0.1464 0,0.24237s0.05196,0.19225 0.05196,0.19225s-0.06755,0.11095 0,0.19194a0.24848,0.24848 0 0 1 0.0486,0.1791c-0.0272,0.10269 -0.04737,0.23748 -0.00183,0.33131l0,0.00214l0.01223,0.14426l0.39916,-0.03056l0,-0.08069s0.27263,0.07244 0.52662,0.03301c0.13693,-0.02109 0.26835,-0.07488 0.34873,-0.1898c0.00214,0.00153 0.16352,-0.2763 -0.27416,-0.17024z"/>
   <path id="svg_62" fill="#65617d" d="m488.89217,-166.13832c-0.07763,0.11461 -0.20447,0.1681 -0.3362,0.18919c-0.24451,0.03912 -0.50828,-0.03301 -0.50828,-0.03301l0,0.0813l-0.38541,0.03056l-0.01192,-0.14365l0,-0.00245c-0.04462,-0.09475 -0.02415,-0.23167 0.00275,-0.33467a1.21644,1.21644 0 0 1 0.04768,-0.14304s0.33192,-0.2818 0.44256,-0.0703a0.34262,0.34262 0 0 0 0.0975,0.11125c0.15282,0.11675 0.38541,0.14518 0.38541,0.14518c0.42178,-0.10697 0.26591,0.16963 0.26591,0.16963z"/>
   <path id="svg_63" opacity="0.1" d="m487.86584,-166.41492s0,0.26163 0.19102,0.25674s0.2167,-0.10422 0.15618,-0.17146a0.82522,0.82522 0 0 1 -0.10575,-0.15557l-0.24145,0.0703z"/>
   <path id="svg_64" fill="#65617d" d="m486.22089,-165.62576a0.90775,0.90775 0 0 1 -0.32734,0.06724a0.51347,0.51347 0 0 1 -0.10545,-0.01161c-0.20111,-0.04554 -0.37716,-0.25185 -0.37716,-0.25185l-0.03515,0.05563l-0.39733,-0.18124l0.04493,-0.10606l0.00183,-0.01803c0.01834,-0.14457 0.13876,-0.30931 0.22128,-0.40772c0.04493,-0.05349 0.07885,-0.08711 0.07885,-0.08711l0.47802,0.0703s0.00183,0.06113 0,0.1357a1.08349,1.08349 0 0 1 -0.01406,0.1409c-0.01987,0.11064 0.20111,0.37227 0.20111,0.37227c0.37624,0.03607 0.23045,0.22159 0.23045,0.22159z"/>
   <path id="svg_65" fill="#444053" d="m485.26485,-166.79391a0.05012,0.05012 0 0 1 -0.02506,0.00183a0.07396,0.07396 0 0 1 0.02506,-0.00183z"/>
   <path id="svg_66" opacity="0.1" d="m485.80339,-166.49531s0.00183,0.06113 0,0.1357l-0.56237,-0.09169s0.00275,-0.0107 0.00672,-0.02842c0.04493,-0.05349 0.07885,-0.08711 0.07885,-0.08711l0.4768,0.07152z"/>
   <path id="svg_67" opacity="0.1" d="m488.23994,-166.45435c-0.08497,0.19653 -0.59049,0.15007 -0.59049,0.15007a0.24145,0.24145 0 0 0 0.00275,-0.04799a1.21644,1.21644 0 0 1 0.04768,-0.14304s0.33192,-0.2818 0.44256,-0.0703a0.34262,0.34262 0 0 0 0.0975,0.11125z"/>
   <path id="svg_68" fill="#444053" d="m488.24819,-166.51028c-0.05012,0.22617 -0.59875,0.17605 -0.59875,0.17605a0.2601,0.2601 0 0 0 -0.04523,-0.19133c-0.06541,-0.08038 0,-0.19102 0,-0.19102s-0.10575,-0.09566 -0.05012,-0.19133s0,-0.24145 0,-0.24145c-0.13112,-0.20111 -0.10575,-0.66415 -0.11125,-0.70297s0,-0.18094 0,-0.18094s-0.02476,-0.10575 0,-0.16627s-0.03973,-0.13081 -0.03484,-0.20111a1.30141,1.30141 0 0 0 -0.02415,-0.22648l0,-0.42789s-0.13173,-0.10056 -0.11156,-0.24145s-0.12592,-0.3362 -0.12592,-0.3362l-0.02506,0.08558c-0.00489,0.37716 -0.38724,1.37323 -0.38724,1.37323s-0.09566,0.15618 -0.12592,0.17635s-0.12562,0 -0.12562,0s-0.0052,0.13081 -0.07549,0.15588s-0.41261,0.6941 -0.40742,0.79986s-0.10086,0.18613 -0.10086,0.18613s0.05043,0.09169 0.0052,0.1409s-0.02537,0.03515 -0.02537,0.08558s0,0.03056 -0.03056,0.05012s0,0.02537 0,0.06113a0.07152,0.07152 0 0 1 -0.01528,0.05012l-0.00458,0.08466l-0.58897,-0.09444s0.04034,-0.17116 0.05532,-0.25185c0.00886,-0.04707 -0.01161,-0.0596 -0.03056,-0.06113c0.01681,-0.00611 0.03393,-0.02476 0.02537,-0.07855c-0.01528,-0.09566 0.09169,-0.19622 0.09169,-0.19622c0.10575,-0.77999 0.5584,-1.25312 0.5584,-1.25312c0,-0.03056 0.10056,-0.11553 0.10056,-0.11553s0.01009,-0.13601 0.09566,-0.15099s0,-0.12592 0,-0.12592s0.09566,-0.22617 0.10056,-0.30564s0.03331,-0.45846 0.03331,-0.45846s0.04218,-0.10056 0.01864,-0.17085s0,-0.08558 0,-0.08558s0.02842,-0.15099 0,-0.20631a0.22617,0.22617 0 0 1 -0.01773,-0.12073l0.01437,-0.19805l0.02078,-0.29494s1.56517,-0.27018 1.73755,-0.0541a0.27507,0.27507 0 0 1 0.04065,0.08802c0.12226,0.39733 0.08008,1.71799 0.08008,1.71799l-0.07549,0.38235s0.05043,0.0706 0.03545,0.13081a0.31083,0.31083 0 0 0 0.01498,0.1461s0,0.03056 -0.0052,0.11064a0.3362,0.3362 0 0 0 0.0052,0.11064s0.00489,0.6941 0.01009,0.835s0.05532,0.19622 0.05532,0.19622l0,0.17116a0.24726,0.24726 0 0 1 0.01987,0.10056a0.23687,0.23687 0 0 0 0.02415,0.10575z"/>
   <path id="svg_69" opacity="0.1" d="m485.89355,-165.55791a0.51347,0.51347 0 0 1 -0.10545,-0.01161c-0.20111,-0.04554 -0.37716,-0.25185 -0.37716,-0.25185l-0.03515,0.05563l-0.39733,-0.18124l0.04493,-0.10667l0.00183,-0.01803l0.41078,0.20936s0.32795,0.1571 0.45754,0.30442z"/>
   <path id="svg_70" opacity="0.1" d="m488.55536,-165.94913c-0.24451,0.03912 -0.50828,-0.03301 -0.50828,-0.03301l0,0.0813l-0.38541,0.03056l-0.01192,-0.14365c0.12226,0.00214 0.31878,0.00428 0.40436,-0.00245a1.87693,1.87693 0 0 1 0.50125,0.06724z"/>
   <path id="svg_71" opacity="0.1" d="m485.46168,-166.9235a0.13815,0.13815 0 0 1 0.05929,0.00764a0.41322,0.41322 0 0 1 0.05624,0.04034a0.23229,0.23229 0 0 1 0.03729,0.02476c0.01467,0.01437 0.02078,0.03576 0.03545,0.05012c0.0269,0.02659 0.07121,0.02048 0.10697,0.03331c0.00397,0 0.00825,0.00336 0.00886,0.00734s-0.00275,0.00734 -0.00611,0.00978a0.05868,0.05868 0 0 1 -0.05807,0a0.23351,0.23351 0 0 1 -0.0486,-0.03668a0.32856,0.32856 0 0 0 -0.09444,-0.05868c-0.04737,-0.01864 -0.1299,-0.02384 -0.15985,-0.0703c0.01406,-0.0107 0.04462,-0.00734 0.06296,-0.00764z"/>
   <path id="svg_72" opacity="0.1" d="m485.42134,-166.81775a0.14426,0.14426 0 0 1 0.03056,0.01253l0.05165,0.02598a0.19133,0.19133 0 0 1 -0.10545,-0.02353a0.3035,0.3035 0 0 1 -0.03331,-0.01589a0.17055,0.17055 0 0 1 0.05654,0.00092z"/>
   <path id="svg_73" opacity="0.1" d="m485.4895,-166.72973a0.13754,0.13754 0 0 1 0.03362,0.00275a0.16718,0.16718 0 0 1 0.05318,0.03056a0.20783,0.20783 0 0 0 0.13326,0.04615a0.05807,0.05807 0 0 1 -0.03056,0.0052l-0.1082,0a0.14365,0.14365 0 0 1 -0.08069,-0.01864c-0.01834,-0.00886 -0.09414,-0.03056 -0.09475,-0.05593s0.0758,-0.01009 0.09414,-0.01009z"/>
   <path id="svg_74" opacity="0.1" d="m487.95141,-166.60136a0.60241,0.60241 0 0 0 0.09964,0.00275a0.19041,0.19041 0 0 0 0.09842,-0.03056c0.02904,-0.02231 0.02292,-0.04523 -0.01406,-0.04676a0.26377,0.26377 0 0 0 -0.09933,0.02445a0.30136,0.30136 0 0 0 -0.04646,0.02353c-0.00764,0.00336 -0.0327,0.0269 -0.0382,0.02659z"/>
   <path id="svg_75" opacity="0.1" d="m488.07184,-166.54635c-0.00306,0.01223 -0.01589,0.01895 -0.02751,0.02353a0.31542,0.31542 0 0 1 -0.08864,0.01956c-0.00764,0 -0.02904,0 -0.02628,-0.01192s0.03454,-0.00825 0.04218,-0.00917a0.7641,0.7641 0 0 0 0.10025,-0.02201z"/>
   <path id="svg_76" opacity="0.1" d="m487.76986,-166.56621a0.20447,0.20447 0 0 1 0.12226,0.02415a0.00611,0.00611 0 0 1 0.00245,0.00306a0.00306,0.00306 0 0 1 0,0.00275a0.04187,0.04187 0 0 1 -0.04096,0.02201a0.19133,0.19133 0 0 1 -0.04768,-0.01192a0.24696,0.24696 0 0 0 -0.07885,-0.01192a0.19897,0.19897 0 0 1 -0.03576,0c-0.03545,-0.00611 -0.02384,-0.02048 0.00336,-0.02353a0.71794,0.71794 0 0 1 0.07519,-0.00458z"/>
   <path id="svg_77" opacity="0.1" d="m486.38777,-168.54308a0.31114,0.31114 0 0 0 -0.17177,-0.05624a0.24451,0.24451 0 0 1 0.17177,0.05624z"/>
   <path id="svg_78" opacity="0.1" d="m486.3407,-168.74603a0.24787,0.24787 0 0 1 0.12837,0.03668l-0.04646,-0.01284a0.43829,0.43829 0 0 0 -0.08588,-0.01803c-0.01681,-0.00153 -0.03362,0 -0.05043,-0.00183s-0.0382,-0.00489 -0.05715,-0.0055c0.03698,0.00183 0.07427,-0.00031 0.11156,0.00153z"/>
   <path id="svg_79" opacity="0.1" d="m486.49199,-168.64944c0.01406,0.00275 0.03056,0.00886 0.03362,0.02323c0,-0.00856 -0.09964,-0.03668 -0.11186,-0.04065c-0.02048,-0.00734 -0.08619,-0.03607 -0.10117,-0.0162c0.05777,0.01559 0.12012,0.02139 0.17941,0.03362z"/>
   <path id="svg_80" opacity="0.1" d="m486.63197,-169.09629a0.42148,0.42148 0 0 0 0.1733,-0.11125a0.13754,0.13754 0 0 1 -0.06388,0.11309a0.36004,0.36004 0 0 1 -0.12623,0.04707a0.55626,0.55626 0 0 0 -0.12959,0.03882c-0.01987,0.01009 -0.08191,0.06877 -0.10147,0.06571c-0.02476,-0.00367 0.01467,-0.04279 0.02384,-0.04982c0.06541,-0.05104 0.14823,-0.07366 0.22403,-0.10361z"/>
   <path id="svg_81" opacity="0.1" d="m487.86461,-168.44375c-0.02139,-0.00734 -0.28119,0.0431 -0.26529,-0.00734c0.00978,-0.03056 0.09414,-0.01956 0.11523,-0.01864a0.53334,0.53334 0 0 1 0.15007,0.02598z"/>
   <path id="svg_82" fill="#fbbebe" d="m487.58465,-174.45871a0.57338,0.57338 0 1 1 -0.17299,-0.41047a0.5691,0.5691 0 0 1 0.17299,0.41047z"/>
   <path id="svg_83" stroke-miterlimit="10" stroke="#4d9883" fill="none" d="m487.30743,-174.22246s-0.18613,0.54343 -0.08038,0.65407s-0.75982,0.17605 -0.75982,0.17605s0.36218,-0.64887 0.32703,-0.80994s0.51317,-0.02017 0.51317,-0.02017z"/>
   <path id="svg_84" opacity="0.1" d="m488.08253,-170.51598c0,0.01314 0,0.02567 0,0.0379c-0.01009,0.25674 -0.46793,0.77479 -0.57368,0.68921s-0.82522,-0.25674 -0.82522,-0.25674s-0.10575,-0.16596 -0.21639,-0.16596a0.56574,0.56574 0 0 1 -0.18185,-0.04707l0.02078,-0.29494s1.56456,-0.26804 1.73694,-0.05196a0.27507,0.27507 0 0 1 0.03943,0.08955z"/>
   <path id="svg_85" fill="#65617d" d="m488.08223,-170.52484c-0.0052,0.12867 -0.12226,0.32275 -0.25154,0.47374s-0.26927,0.25796 -0.32214,0.21395a0.50797,0.50797 0 0 0 -0.1247,-0.05899c-0.23809,-0.08772 -0.70022,-0.19775 -0.70022,-0.19775s-0.10575,-0.16596 -0.21639,-0.16596s-0.32184,-0.11064 -0.32184,-0.11064s0.02017,-0.03056 0,-0.1409s-0.34201,0.06113 -0.34201,0.06113s-0.01528,-0.74454 0.10056,-1.10702s0.06113,-0.82522 0.06113,-0.82522s0.08283,-0.45601 0.17269,-0.81636c0.0541,-0.21609 0.11095,-0.39733 0.15435,-0.42606c0.11584,-0.07549 0.71947,0 0.71947,0s0.25154,0.00489 0.34721,0.03056a0.15282,0.15282 0 0 1 0.07244,0.05899c0.00581,0.00795 0.01192,0.0162 0.01773,0.02506c0.06724,0.10086 0.1357,0.27507 0.20142,0.43431c0.09566,0.23137 0.47313,1.20727 0.47313,1.20727s-0.01009,0.06541 -0.09566,0.36218s0.06449,0.72528 0.0544,0.98171z"/>
   <path id="svg_86" fill="#fbbebe" d="m487.64944,-170.22807l0.18124,0.17666s0.16596,0.57277 -0.05043,0.52264s-0.39733,-0.36677 -0.39733,-0.36677l0.26652,-0.33253z"/>
   <path id="svg_87" opacity="0.1" d="m488.10729,-171.82289c-0.42789,-0.00489 -0.53823,-0.60364 -0.53823,-0.60364s-0.03056,-0.59355 -0.08558,-0.70297c-0.03056,-0.06113 -0.04432,-0.2115 -0.05043,-0.33376c0.06724,0.10086 0.1354,0.27507 0.20142,0.43431c0.09566,0.23015 0.47282,1.20605 0.47282,1.20605z"/>
   <path id="svg_88" fill="#65617d" d="m488.12257,-171.86812c-0.42789,-0.00489 -0.53792,-0.60394 -0.53792,-0.60394s-0.03056,-0.59355 -0.08558,-0.70297c-0.03056,-0.06113 -0.04432,-0.2115 -0.05043,-0.33376c0.06724,0.10086 0.1357,0.27507 0.20142,0.43431c0.09505,0.23045 0.47252,1.20635 0.47252,1.20635z"/>
   <path id="svg_89" opacity="0.1" d="m487.35664,-173.34497s-0.12592,-0.34201 -0.33223,0s-0.2112,0.77479 -0.2112,0.77479l-0.03515,0.94565s0.06541,0.12592 0.06296,0.19622s0.12226,0.27171 0.12226,0.27171s0.03056,0.39733 0.14579,0.46274l0.11064,0.32703s0.0052,0.21639 0.08069,0.30197s0.03576,0.21761 0.03576,0.21761l0.44715,-0.15649s-0.05043,0.01803 0,-0.11706s-0.03056,-0.31145 -0.03056,-0.31145s-0.28669,-0.62381 -0.32184,-0.71428s-0.08558,-0.19622 -0.06541,-0.30197s0.00397,-1.22744 0.03056,-1.3983s-0.03943,-0.49819 -0.03943,-0.49819z"/>
   <path id="svg_90" fill="#444053" d="m487.4031,-173.39234s-0.12592,-0.34201 -0.33223,0s-0.2112,0.77479 -0.2112,0.77479l-0.03515,0.94565s0.06541,0.12592 0.06296,0.19622s0.12226,0.27171 0.12226,0.27171s0.03056,0.39733 0.14579,0.46274l0.11064,0.32703s0.0052,0.21639 0.08069,0.30197s0.03607,0.21761 0.03607,0.21761l0.44684,-0.15679s-0.05043,0.01834 0,-0.11675s-0.03056,-0.31145 -0.03056,-0.31145s-0.28669,-0.62381 -0.32184,-0.71428s-0.08558,-0.19622 -0.06541,-0.30197s0.00428,-1.22744 0.03056,-1.3986s-0.03943,-0.49788 -0.03943,-0.49788z"/>
   <path id="svg_91" opacity="0.1" d="m487.41166,-170.43407a0.16902,0.16902 0 0 1 0.05471,0.0162c0.01375,0.00734 0.02567,0.01803 0.03912,0.02567a0.10911,0.10911 0 0 0 0.05165,0.01406c-0.02017,0 -0.04034,0.00214 -0.06113,0.00245a0.10697,0.10697 0 0 1 -0.03698,-0.00458a0.15037,0.15037 0 0 1 -0.03056,-0.02048a0.16474,0.16474 0 0 0 -0.04004,-0.02201c-0.0107,-0.00458 -0.02231,-0.00611 -0.0269,-0.01712a0.31083,0.31083 0 0 1 0.05012,0.00581z"/>
   <path id="svg_92" opacity="0.1" d="m487.5819,-170.29898c0.01895,0 0.0379,-0.00428 0.05715,-0.0055a0.47038,0.47038 0 0 1 0.08283,0.00428a0.2332,0.2332 0 0 1 -0.13081,0.02323a0.07824,0.07824 0 0 0 -0.03943,0c-0.01406,0.00581 -0.05471,0.05196 -0.05838,0.011s0.06541,-0.03209 0.08864,-0.03301z"/>
   <path id="svg_93" opacity="0.1" d="m487.35053,-175.06235l-0.07152,-0.05318a0.13754,0.13754 0 0 1 0.02262,0.01009a0.16688,0.16688 0 0 1 0.04096,0.03209c0.00795,0.00672 0.01589,0.01406 0.02353,0.02109l-0.01559,-0.01009z"/>
   <path id="svg_94" opacity="0.1" d="m487.43183,-173.53477a0.17788,0.17788 0 0 1 -0.06113,0.07458a0.12531,0.12531 0 0 1 -0.05379,0.02078a0.21028,0.21028 0 0 1 -0.0813,-0.00856a1.00372,1.00372 0 0 1 -0.09872,-0.03056a1.63058,1.63058 0 0 0 -0.19408,-0.06602c-0.10056,-0.02292 -0.21761,-0.01467 -0.28975,0.05868c-0.06327,0.06449 -0.07885,0.16474 -0.14212,0.22923c-0.08466,0.08619 -0.22342,0.08099 -0.34354,0.06418l-0.02812,-0.00397c0.0541,-0.21609 0.11095,-0.39733 0.15435,-0.42606c0.11584,-0.07549 0.71947,0 0.71947,0s0.25154,0.00489 0.34721,0.03056a0.15282,0.15282 0 0 1 0.07152,0.05715z"/>
   <path id="svg_95" opacity="0.1" d="m486.43728,-174.45871a0.57338,0.57338 0 0 1 0.97376,-0.41047l0,0c0.00183,0.09994 -0.01987,0.20233 0.00825,0.29861c0.02598,0.08955 0.09169,0.16168 0.15099,0.23626a0.57338,0.57338 0 0 1 -1.133,-0.12439z"/>
   <path id="svg_96" fill="#444053" d="m487.36459,-175.08222a0.71581,0.71581 0 0 0 -0.83164,-0.09353a0.43064,0.43064 0 0 0 -0.14976,0.13723c-0.07885,0.12562 -0.05868,0.28761 -0.09994,0.43003c-0.03912,0.13601 -0.13265,0.24848 -0.20997,0.36677s-0.14182,0.25949 -0.11278,0.39733c0.02109,0.10086 0.09169,0.19133 0.08925,0.29433a0.22831,0.22831 0 0 1 -0.22098,0.217c0.09719,0.06877 0.21853,0.09169 0.3362,0.1085s0.25857,0.02201 0.34354,-0.06449c0.06327,-0.06418 0.07885,-0.16474 0.14212,-0.22892c0.07213,-0.07366 0.18919,-0.08191 0.28975,-0.05868s0.19316,0.07183 0.2928,0.0978a0.21609,0.21609 0 0 0 0.0813,0.00825c0.08588,-0.01161 0.1357,-0.10697 0.14243,-0.19316c0.0055,-0.07183 -0.00489,-0.15465 0.04615,-0.20539a0.38938,0.38938 0 0 1 0.06113,-0.0431a0.2601,0.2601 0 0 0 0.11034,-0.24634c-0.02353,-0.17055 -0.20814,-0.27691 -0.25643,-0.44226c-0.02812,-0.09597 -0.00642,-0.19836 -0.00825,-0.2983s-0.03943,-0.21395 -0.13356,-0.24757"/>
   <path id="svg_97" opacity="0.1" d="m487.66656,-174.15766c-0.02384,-0.17055 -0.20845,-0.27691 -0.25674,-0.44226c-0.02812,-0.09597 -0.00642,-0.19836 -0.00795,-0.2983a0.32764,0.32764 0 0 0 -0.06113,-0.19439l0.01406,0.01039q-0.01131,-0.011 -0.02384,-0.02109a0.16138,0.16138 0 0 0 -0.03943,-0.03056c-0.00856,-0.00642 -0.01742,-0.01223 -0.02598,-0.01803l0.01375,0.01253l-0.01406,-0.01039a0.32703,0.32703 0 0 1 0.06113,0.19439c0,0.09964 -0.02017,0.20233 0.00795,0.2983c0.04829,0.16535 0.2329,0.27171 0.25674,0.44226a0.26071,0.26071 0 0 1 -0.11064,0.24634a0.38358,0.38358 0 0 0 -0.06113,0.0431c-0.05074,0.05074 -0.04065,0.13356 -0.04615,0.20539c-0.00672,0.08619 -0.05654,0.18155 -0.14212,0.19316a0.21761,0.21761 0 0 1 -0.08161,-0.00825c-0.09964,-0.02598 -0.19225,-0.07488 -0.2928,-0.0978s-0.21731,-0.01498 -0.28975,0.05868c-0.06327,0.06418 -0.07885,0.16443 -0.14212,0.22892c-0.08466,0.0865 -0.22342,0.08099 -0.34323,0.06449a1.05354,1.05354 0 0 1 -0.23106,-0.05318a0.19469,0.19469 0 0 1 -0.03056,0.00245c0.09719,0.06877 0.21853,0.09169 0.3362,0.1085s0.25857,0.02201 0.34323,-0.06449c0.06327,-0.06418 0.07885,-0.16474 0.14212,-0.22892c0.07244,-0.07366 0.1895,-0.08191 0.28975,-0.05868s0.19316,0.07183 0.2928,0.0978a0.21761,0.21761 0 0 0 0.08161,0.00825c0.08558,-0.01161 0.1354,-0.10697 0.14212,-0.19316c0.0055,-0.07183 -0.00458,-0.15465 0.04615,-0.20539a0.40375,0.40375 0 0 1 0.06113,-0.0431a0.2604,0.2604 0 0 0 0.11156,-0.24696z"/>
  </g>
  <g stroke="null" id="svg_130">
   <path stroke="null" id="svg_103" fill="#d0cde1" d="m706.6755,487.87096l79.19529,-90.29016l-79.03332,100.00362l0.16527,10.15991q-8.67235,0.05071 -17.17623,-0.22143l3.92791,-130.59895l-0.10761,-1.00752l0.14493,-0.19467l0.37595,-12.34081l-86.72823,-96.53677l86.62586,87.3004l0.3074,2.60846l2.96683,-98.67261l-74.90975,-100.08654l75.12312,82.75261l-0.78412,-204.42421l0.00167,-0.68037l0.02549,0.66914l4.9727,161.11375l68.27132,-65.44451l-68.04785,79.32416l1.49006,88.26035l62.82365,-86.13872l-62.59273,99.11448l0.82945,49.0772l91.36255,-119.99024l-91.0848,137.11118l1.85517,109.13225z"/>
   <ellipse stroke="null" transform="matrix(1.0692254919028519,0,0,0.8197286402126885,-5508.733046788723,-3151.040501743183) " id="svg_104" fill="#d0cde1" ry="16" rx="314" cy="4461.57762" cx="5529.68882"/>
   <path stroke="null" id="svg_128" fill="#d0cde1" d="m147.83005,496.19433s-42.92566,-60.74393 -146.73524,-34.4779l146.73524,34.4779z"/>
   <path stroke="null" id="svg_129" fill="#d0cde1" d="m150.41835,494.70993s-53.08598,-51.73209 23.53557,-116.26861l-23.53557,116.26861z"/>
  </g>
 </g>
</svg>